HIERARCHY
ROOT hip
{
	OFFSET 0.000000 0.000000 0.000000 
	CHANNELS 6 Xposition Yposition Zposition Xrotation Zrotation Yrotation
	JOINT abdomen
	{
		OFFSET 0.000000 3.402643 0.000000 
		CHANNELS 3 Xrotation Zrotation Yrotation
		JOINT chest
		{
			OFFSET 0.000000 8.438565 -0.680529 
			CHANNELS 3 Xrotation Zrotation Yrotation
			JOINT neck
			{
				OFFSET 0.000000 10.207942 -0.272212 
				CHANNELS 3 Xrotation Zrotation Yrotation
				JOINT head
				{
					OFFSET 0.000000 3.130431 0.000000 
					CHANNELS 3 Xrotation Zrotation Yrotation
					End Site
					{
						OFFSET 0.000000 3.130435 0.000000 
					}
				}
			}
			JOINT lCollar
			{
				OFFSET 3.470700 6.669187 -0.816635 
				CHANNELS 3 Yrotation Zrotation Xrotation
				JOINT lShldr
				{
					OFFSET 3.198488 0.000000 0.000000 
					CHANNELS 3 Zrotation Yrotation Xrotation
					JOINT lForeArm
					{
						OFFSET 10.139888 0.000000 0.000000 
						CHANNELS 3 Yrotation Zrotation Xrotation
						JOINT lHand
						{
							OFFSET 8.370511 0.000000 0.000000 
							CHANNELS 3 Zrotation Yrotation Xrotation
							End Site
							{
								OFFSET 4.083176 0.000000 0.000000 
							}
						}
					}
				}
			}
			JOINT rCollar
			{
				OFFSET -3.470700 6.669187 -0.816635 
				CHANNELS 3 Yrotation Zrotation Xrotation
				JOINT rShldr
				{
					OFFSET -3.198488 0.000000 0.000000 
					CHANNELS 3 Zrotation Yrotation Xrotation
					JOINT rForeArm
					{
						OFFSET -10.139888 0.000000 0.000000 
						CHANNELS 3 Yrotation Zrotation Xrotation
						JOINT rHand
						{
							OFFSET -8.370511 0.000000 0.000000 
							CHANNELS 3 Zrotation Yrotation Xrotation
							End Site
							{
								OFFSET -4.083176 0.000000 0.000000 
							}
						}
					}
				}
			}
		}
	}
	JOINT lThigh
	{
		OFFSET 5.308129 -1.633274 1.361059 
		CHANNELS 3 Xrotation Zrotation Yrotation
		JOINT lShin
		{
			OFFSET -2.041588 -20.007561 0.000000 
			CHANNELS 3 Xrotation Zrotation Yrotation
			JOINT lFoot
			{
				OFFSET 0.000000 -19.190928 -1.224953 
				CHANNELS 3 Xrotation Yrotation Zrotation
				End Site
				{
					OFFSET 0.000000 -2.449906 4.627600 
				}
			}
		}
	}
	JOINT rThigh
	{
		OFFSET -5.308129 -1.633274 1.361059 
		CHANNELS 3 Xrotation Zrotation Yrotation
		JOINT rShin
		{
			OFFSET 2.041588 -20.007561 0.000000 
			CHANNELS 3 Xrotation Zrotation Yrotation
			JOINT rFoot
			{
				OFFSET 0.000000 -19.190928 -1.224953 
				CHANNELS 3 Xrotation Yrotation Zrotation
				End Site
				{
					OFFSET 0.000000 -2.449906 4.627600 
				}
			}
		}
	}
}
MOTION
Frames: 16
Frame Time: 0.016667
-0.131251 42.793472 0.300942 0.547591 2.929550 -0.957878 -19.349501 -0.272175 2.444630 20.292999 -0.283200 1.104820 6.188350 5.368830 1.606240 9.465840 6.706640 1.518900 2.000000 -2.000000 0.000000 -61.896900 -28.988001 152.957001 31.728901 -0.331132 0.071958 0.164114 -0.164886 147.873001 -2.000000 2.000000 0.000000 63.827801 22.828300 -170.158005 -39.922298 0.319699 0.087741 179.912994 179.903000 5.822480 -9.011895 0.931778 -2.671024 30.825220 3.191146 2.133179 -12.769128 14.151304 4.106156 -8.110013 3.389294 12.426737 29.160707 -2.956181 -2.134266 -21.875677 -19.103674 -7.676376 
-0.291398 42.789742 0.310295 0.400954 3.037030 -0.808347 -19.405899 -0.248044 2.592600 20.273399 -0.253903 1.173130 6.473570 5.305800 1.778210 9.583690 6.695350 1.609770 2.000000 -2.000000 0.000000 -60.161598 -31.381399 152.570999 32.256199 -0.330466 0.073025 0.169478 -0.166205 145.901001 -2.000000 2.000000 0.000000 62.659901 25.761101 -171.485001 -41.211399 0.317699 0.090077 179.908005 179.895996 2.873260 -8.885633 0.944142 -2.826039 30.892523 3.206182 2.136437 -12.599443 14.224760 4.066030 -7.955599 3.405966 12.277362 29.310049 -2.940853 -2.147895 -22.046618 -18.968439 -7.648511 
-0.445174 42.784340 0.342372 0.224974 3.261690 -0.465180 -19.473101 -0.284636 2.689820 20.253901 -0.234372 1.212180 6.823430 5.420920 1.913010 9.731980 6.751670 1.681460 2.000000 -2.000000 0.000000 -58.465401 -33.971100 151.716995 32.822601 -0.329739 0.074165 0.173168 -0.166999 144.552994 -2.000000 2.000000 0.000000 -118.487999 151.324997 6.813280 -42.402802 0.315803 0.092197 179.899994 179.878998 -0.964613 -8.696114 0.833800 -3.041974 30.774149 3.216792 2.150232 -12.329093 14.184288 3.983322 -7.837142 3.331460 12.027661 29.602362 -2.958535 -2.138564 -22.427877 -18.879089 -7.718122 
-0.598949 42.779060 0.374449 0.058702 3.486330 -0.122796 -19.540199 -0.330378 2.790410 20.234400 -0.214840 1.251210 7.174130 5.544550 2.040680 9.880300 6.807910 1.753450 2.000000 -2.000000 0.000000 -56.661999 -36.531700 150.751007 33.379299 -0.329013 0.075277 0.176874 -0.167706 143.205002 -2.000000 2.000000 0.000000 -119.772003 148.440002 4.999020 -43.594200 0.313865 0.094276 179.893005 179.871002 -4.812250 -8.475776 0.715560 -3.250333 30.623108 3.236122 2.107898 -12.047556 14.194334 3.903771 -7.718802 3.238311 11.787678 29.858080 -2.964223 -2.165622 -22.750036 -18.751734 -7.784535 
-0.760378 42.771992 0.411736 -0.127198 3.554680 0.275332 -19.617100 -0.357583 2.884880 20.156200 -0.263665 1.290910 7.326290 5.603860 1.995120 9.949280 6.816640 1.733250 2.000000 -2.000000 0.000000 -54.634602 -38.925800 150.052994 34.092201 -0.328069 0.076692 0.181003 -0.168387 141.710999 -2.000000 2.000000 0.000000 -121.084999 145.612000 2.808620 -44.473099 0.312407 0.095784 -0.115772 0.126198 171.212997 -8.294328 0.839932 -3.303272 30.552952 3.251241 2.112622 -12.022699 14.046125 3.858290 -7.437706 3.320934 11.504401 29.976683 -2.962960 -2.183187 -22.938519 -18.757528 -7.827610 
-0.921806 42.764915 0.449021 -0.313129 3.632760 0.673559 -19.693800 -0.381311 2.988650 20.078100 -0.322254 1.340580 7.479180 5.672040 1.940490 10.018100 6.815650 1.721830 2.000000 -2.000000 0.000000 -52.499901 -41.290798 149.207993 34.805099 -0.327106 0.078094 0.185174 -0.168965 140.207001 -2.000000 2.000000 0.000000 -122.582001 142.843002 0.467508 -45.352001 0.310926 0.097269 -0.124759 0.132761 167.238007 -8.190779 0.935382 -3.340478 30.586847 3.298924 2.105177 -12.029071 13.912405 3.811068 -7.258308 3.416656 11.210278 30.142963 -2.968301 -2.182211 -23.106722 -18.725565 -7.890475 
-1.079469 42.755657 0.491512 -0.352286 3.671810 1.188420 -19.791000 -0.416172 3.034870 20.058599 -0.400375 1.360900 7.607770 5.862360 1.841970 10.078000 6.873060 1.676320 2.000000 -2.000000 0.000000 -50.286999 -43.362701 148.408005 35.830502 -0.325692 0.080091 0.189169 -0.169413 138.772003 -2.000000 2.000000 0.000000 -124.421997 140.259003 -1.824740 -46.308998 0.309289 0.098860 -0.134320 0.138768 163.205002 -8.219590 1.084568 -3.398944 30.606504 3.302774 2.115705 -11.729451 13.601441 3.666675 -7.075385 3.518033 10.985312 30.163952 -2.957196 -2.188872 -23.242043 -18.791748 -7.959619 
-1.237136 42.746391 0.534002 -0.391446 3.710850 1.713000 -19.878300 -0.456821 3.093460 20.029301 -0.478495 1.381360 7.736550 6.052530 1.743360 10.137900 6.930450 1.641880 2.000000 -2.000000 0.000000 -47.947102 -45.395901 147.455002 36.855900 -0.324242 0.082061 0.193174 -0.169762 137.335999 -2.000000 2.000000 0.000000 -126.475998 137.753006 -4.318620 -47.275799 0.307607 0.100440 -0.144280 0.144088 159.171997 -8.245073 1.246144 -3.467729 30.645180 3.308988 2.116942 -11.448751 13.311861 3.535512 -6.995731 3.650322 10.719894 30.261808 -2.955258 -2.177284 -23.359499 -18.855717 -8.052128 
-1.378795 42.719006 0.580881 -0.440376 3.710830 2.412960 -19.909401 -0.499981 3.006070 20.078100 -0.566387 1.332860 8.095230 6.056890 1.706400 10.275700 6.938090 1.620360 2.000000 -2.000000 0.000000 -45.498699 -47.205399 146.059006 38.135201 -0.322384 0.084483 0.196448 -0.169972 136.164001 -2.000000 2.000000 0.000000 -128.578003 135.110001 -7.147330 -47.764099 0.306748 0.101227 -0.151184 0.147269 156.457001 -8.446658 1.487600 -3.458152 30.987530 3.322520 2.116913 -11.393017 12.694790 3.368589 -6.830210 3.820446 10.561606 30.339998 -2.962834 -2.187850 -23.453211 -19.022738 -8.156481 
-1.520453 42.691616 0.627760 -0.489307 3.710800 3.122690 -19.930599 -0.548986 2.930910 20.126900 -0.654279 1.284200 8.444130 6.061090 1.669050 10.413600 6.945680 1.598890 2.000000 -2.000000 0.000000 -42.893902 -48.966202 144.490005 39.424198 -0.320458 0.086880 0.199727 -0.170115 134.992004 -2.000000 2.000000 0.000000 49.017200 47.446400 169.740997 -48.242599 0.305899 0.101991 -0.158232 0.150119 153.742004 -8.651804 1.744120 -3.469160 31.255342 3.310451 2.149783 -11.310966 12.022046 3.227185 -6.614734 3.980452 10.409289 30.381300 -2.943632 -2.192591 -23.565365 -19.183163 -8.264673 
-1.645901 42.673866 0.674175 -0.567615 3.740050 3.840010 -19.932699 -0.580902 2.817950 20.156200 -0.722639 1.225750 9.148900 5.857310 1.716130 10.658700 6.893310 1.593510 2.000000 -2.000000 0.000000 -40.238701 -49.954601 143.427994 41.484798 -0.317268 0.090621 0.204676 -0.160438 133.225006 -2.000000 2.000000 0.000000 46.367901 49.768200 166.600006 -48.789501 0.304922 0.102855 -0.163407 0.151970 151.779007 -8.901443 1.929237 -3.428590 31.738649 3.298215 2.171155 -10.867676 11.371614 2.979144 -6.420992 4.089158 10.304026 30.477861 -2.960959 -2.195275 -23.736372 -19.257095 -8.337864 
-1.771350 42.655991 0.720587 -0.645936 3.779060 4.557130 -19.934601 -0.612822 2.704900 20.175699 -0.790998 1.167370 9.853100 5.643250 1.756830 10.913600 6.840690 1.598630 2.000000 -2.000000 0.000000 -37.495399 -50.904099 142.276993 43.555099 -0.313929 0.094262 0.209625 -0.160374 131.457001 -2.000000 2.000000 0.000000 43.376400 51.993000 163.128006 -49.336399 0.303936 0.103710 -0.168643 0.163408 149.817001 -9.175731 2.140983 -3.417199 32.243481 3.268028 2.196215 -10.432979 10.714507 2.769741 -6.190518 4.201259 10.193797 30.437187 -2.972935 -2.189201 -23.811504 -19.317488 -8.440360 
-1.882833 42.645702 0.762428 -0.792802 3.847290 5.191060 -19.847700 -0.676671 2.673550 20.312500 -0.957023 1.146660 10.473800 5.319130 1.808020 11.069200 6.731480 1.584620 2.000000 -2.000000 0.000000 -34.477600 -51.756302 140.863007 45.469200 -0.310728 0.097518 0.214024 -0.160189 129.884995 -2.000000 2.000000 0.000000 39.915001 54.081699 159.302994 -49.746601 0.303191 0.104345 -0.173536 0.155030 148.000000 -9.429553 2.310540 -3.318929 32.727058 3.253972 2.226399 -9.934833 10.080053 2.559414 -5.827850 4.259059 10.137493 30.417288 -2.980603 -2.201188 -23.718920 -19.592295 -8.495912 
-1.994330 42.635414 0.804268 -0.929916 3.925270 5.825160 -19.750900 -0.746427 2.654250 20.439400 -1.123040 1.125340 11.103800 4.985360 1.851860 11.224500 6.612610 1.578570 2.000000 -2.000000 0.000000 -31.371500 -52.559898 139.350006 47.383301 -0.307419 0.100666 0.218416 -0.159883 128.313004 -2.000000 2.000000 0.000000 36.032001 56.014900 155.059006 -50.156700 0.302442 0.104975 -0.178471 0.166027 146.184006 -9.685814 2.471503 -3.240608 33.182709 3.225667 2.261884 -9.394419 9.442659 2.360198 -5.520139 4.328182 10.035933 30.405905 -2.989575 -2.184192 -23.603609 -19.851839 -8.562955 
-2.098489 42.628212 0.829468 -1.008220 3.925180 6.474110 -19.809799 -0.734337 2.630920 20.302700 -1.240220 1.118780 11.788700 4.742610 2.001310 11.331500 6.543010 1.611600 2.000000 -2.000000 0.000000 -28.644800 -52.766899 138.266998 49.814899 -0.303067 0.104502 0.223287 -0.159402 126.565002 -2.000000 2.000000 0.000000 32.388699 57.234200 151.097000 -51.299301 0.300332 0.106701 -0.184355 0.167280 144.035004 -10.157563 2.714441 -3.223173 33.874130 3.199606 2.314967 -8.735716 8.678144 2.153622 -5.287899 4.512304 9.888758 30.257988 -2.998431 -2.188410 -23.720631 -20.252977 -8.781191 
-2.202638 42.621143 0.854668 -1.086530 3.925080 7.132820 -19.868601 -0.731445 2.610860 20.156099 -1.367150 1.113070 12.482600 4.500250 2.156110 11.428700 6.473580 1.643260 2.000000 -2.000000 0.000000 -25.898500 -52.954399 137.173004 52.246601 -0.298556 0.108150 0.228114 -0.158776 124.825996 -2.000000 2.000000 0.000000 28.479099 58.297600 146.860992 -52.441898 0.298187 0.108384 -0.190282 0.168313 141.886993 -10.562385 2.973223 -3.201196 34.535576 3.167591 2.346915 -8.144035 7.929790 1.925969 -5.111291 4.711292 9.716223 30.245962 -3.009987 -2.162422 -23.888626 -20.629564 -8.991576 
